<svg width="16" height="16" fill="none" xmlns="http://www.w3.org/2000/svg"><path d="M8 .8c3.96 0 7.2 3.24 7.2 7.2s-3.24 7.2-7.2 7.2S.8 11.96.8 8 4.04.8 8 .8zM8 0C3.6 0 0 3.6 0 8s3.6 8 8 8 8-3.6 8-8-3.6-8-8-8z" fill="#8A8A8A"/><path d="M11.08 4.88c.12 0 .28-.04.4.04.12.04.2.2.16.32-.04.44-.08.88-.16 1.32-.2 1.48-.48 2.96-.72 4.44 0 .12-.04.24-.12.32a.646.646 0 01-1 .12c-.84-.56-1.68-1.12-2.52-1.72-.12-.08-.16-.28-.16-.4.04-.2.2-.4.36-.52C8 8.12 8.76 7.52 9.4 6.84c.04-.04.08-.12.08-.2 0-.04-.08-.04-.12-.04-.16.04-.28.16-.44.24-.92.64-1.8 1.28-2.76 1.88-.16.08-.28.2-.48.24-.28.08-.56.04-.8-.04-.2-.04-.4-.12-.56-.16-.12-.04-.28-.12-.4-.16-.12-.04-.28-.12-.4-.2a.22.22 0 01-.12-.2c0-.08.08-.12.16-.16.64-.32 1.28-.64 1.92-.92.64-.28 1.28-.56 1.88-.8.96-.4 1.96-.8 2.96-1.2.28-.08.52-.2.76-.24z" fill="#8A8A8A"/></svg>