<svg width="17" height="19" fill="none" xmlns="http://www.w3.org/2000/svg"><path d="M7.353.026A20.2 20.2 0 019.285.02c.875.026 1.75.125 2.607.32a8.565 8.565 0 012.305.865c.53.295 1.01.694 1.378 1.192.495.664.81 1.453 1.026 2.257.361 1.4.436 2.864.384 4.307a27.148 27.148 0 01-.158 2.047c-.111.962-.365 1.919-.843 2.758-.301.53-.693 1-1.156 1.382a5.013 5.013 0 01-1.168.714c-.476.207-.977.335-1.474.472-1.248.304-2.536.421-3.817.411a16.897 16.897 0 01-1.267-.061c-.416.505-.837 1.006-1.261 1.503-.159.18-.304.374-.478.537-.145.133-.315.255-.512.273a.598.598 0 01-.589-.293c-.155-.282-.16-.616-.157-.93-.003-.537.014-1.074.008-1.611.002-.036-.03-.058-.06-.064a5.328 5.328 0 01-1.935-1.05 5.126 5.126 0 01-1.149-1.452c-.434-.801-.68-1.698-.814-2.601a9.11 9.11 0 01-.082-.72c-.02-.292-.05-.583-.054-.875A28.512 28.512 0 000 8.685c.008-1.002.027-2.007.178-2.997a8.557 8.557 0 01.58-2.136 5.512 5.512 0 01.937-1.491 3.7 3.7 0 01.543-.49C2.924 1.054 3.721.722 4.534.483c.919-.264 1.869-.4 2.819-.457zM5.67 1.588c-.742.16-1.476.401-2.135.795-.348.215-.683.465-.942.79-.419.51-.715 1.123-.904 1.764-.262.877-.352 1.797-.38 2.712-.022 1.17-.06 2.353.167 3.504.13.673.352 1.333.71 1.912a4.024 4.024 0 001.507 1.433c.291.161.603.277.918.376.011.243.002.487.004.73.004.801-.021 1.605-.008 2.406.002.098-.006.201.042.289a.137.137 0 00.126.087c.079 0 .147-.052.203-.105.078-.078.15-.163.222-.245.709-.83 1.38-1.694 2.064-2.548.042-.05.076-.11.13-.149.08-.004.16.006.24.01 1.522.068 3.06-.067 4.532-.483a6.06 6.06 0 00.809-.253 3.778 3.778 0 001.404-.984c.44-.49.742-1.096.937-1.73.21-.682.28-1.4.338-2.11a18.77 18.77 0 00.054-2.32c-.048-.968-.17-1.942-.482-2.859-.208-.608-.499-1.203-.942-1.663a3.245 3.245 0 00-.818-.602 7.78 7.78 0 00-1.96-.706 12.783 12.783 0 00-2.679-.286 12.617 12.617 0 00-3.157.235z" fill="#8A8A8A"/><path d="M8.335 3.4c.233-.013.468.013.7.04a4.553 4.553 0 011.982.754 4.43 4.43 0 011.39 1.576c.44.825.643 1.775.655 2.714-.002.074.01.153-.033.219-.076.123-.264.147-.365.044-.065-.062-.067-.157-.069-.241-.01-.833-.176-1.675-.55-2.414a3.921 3.921 0 00-1.357-1.532 4.212 4.212 0 00-2.225-.668c-.082-.004-.18.002-.243-.065-.126-.128-.069-.402.115-.426zM5.2 3.958a.606.606 0 01.61.224c.335.428.671.854.94 1.329.106.19.236.37.297.583.067.258.017.564-.172.755-.147.14-.31.26-.46.396-.144.125-.198.334-.173.521.021.116.067.223.107.33a4.98 4.98 0 001.14 1.798 3.843 3.843 0 001.612.96.535.535 0 00.555-.174c.126-.161.24-.332.372-.487.147-.17.38-.231.595-.205a.935.935 0 01.401.165c.486.31.96.648 1.386 1.044.122.12.265.23.319.404.086.236.006.497-.113.704-.18.306-.395.592-.66.827-.229.199-.51.364-.817.364-.205.01-.39-.088-.577-.157-.7-.285-1.36-.66-2-1.062a10.904 10.904 0 01-1.67-1.265c-.973-.909-1.734-2.04-2.326-3.248-.287-.567-.56-1.145-.763-1.752a1.15 1.15 0 01.048-.817c.17-.388.47-.692.797-.94.168-.124.346-.251.553-.297z" fill="#8A8A8A"/><path d="M8.698 4.652c.084-.022.174-.002.26.004.68.076 1.357.33 1.877.804.4.356.696.833.86 1.352.137.423.194.87.166 1.315-.01.177-.243.248-.365.145-.09-.062-.094-.185-.091-.285.007-.702-.209-1.424-.67-1.949-.454-.515-1.106-.805-1.767-.885-.107-.017-.224-.008-.321-.061-.151-.1-.12-.382.051-.44z" fill="#8A8A8A"/><path d="M9.042 5.943c.082-.026.17-.008.254 0 .354.044.711.18.966.451.317.34.447.83.447 1.295.004.11-.088.197-.186.215-.109.026-.235-.04-.261-.157-.027-.118-.02-.239-.043-.356-.047-.293-.175-.589-.418-.758-.216-.16-.486-.19-.742-.223-.212-.04-.22-.405-.017-.467z" fill="#8A8A8A"/></svg>