<svg width="17" height="17" fill="none" xmlns="http://www.w3.org/2000/svg"><path d="M6.688.227a8.542 8.542 0 013.369-.11 8.08 8.08 0 013.792 1.7 8.55 8.55 0 011.385 1.377 7.88 7.88 0 011.023 1.686c.31.7.527 1.437.647 2.194.071.502.114 1.012.089 1.52a8.361 8.361 0 01-.519 2.609 8.27 8.27 0 01-2.272 3.286 8.662 8.662 0 01-1.693 1.158c-.787.41-1.635.69-2.511.829a8.566 8.566 0 01-3.299-.113 7.736 7.736 0 01-1.877-.691c-.067-.034-.133-.079-.212-.088a.456.456 0 00-.206.034c-1.37.437-2.741.871-4.112 1.303-.098.023-.187.086-.29.078a.228.228 0 01.017-.119c.476-1.393.941-2.792 1.423-4.188a.264.264 0 00-.032-.239 7.943 7.943 0 01-.83-1.963 8.395 8.395 0 01-.291-2.647A8.311 8.311 0 011.71 3.66a8.425 8.425 0 012.796-2.568A8.507 8.507 0 016.688.227zM7.964 1.43a5.683 5.683 0 00-.976.167c-.891.234-1.75.612-2.495 1.155a6.588 6.588 0 00-1.296 1.253 7.65 7.65 0 00-.97 1.63 6.408 6.408 0 00-.534 2.173 7.073 7.073 0 00.294 2.502 6.72 6.72 0 00.92 1.878.343.343 0 01.076.2c-.003.085-.043.164-.068.245l-.42 1.239c-.109.308-.203.62-.317.927-.011.025 0 .05.003.075.06.015.114-.026.171-.042.645-.204 1.29-.406 1.934-.618.128-.04.251-.09.383-.12a.504.504 0 01.362.086 7.175 7.175 0 002.365.91c1.189.222 2.427.094 3.566-.295a6.653 6.653 0 002.458-1.497 7.16 7.16 0 001.62-2.3 6.924 6.924 0 00.527-3.299 6.898 6.898 0 00-1.374-3.555 7.065 7.065 0 00-2.837-2.206 6.767 6.767 0 00-2.376-.526 7.727 7.727 0 00-1.016.018z" fill="#8A8A8A"/><path d="M5.726 4.237c.171-.029.339.035.51.02a.453.453 0 01.247.04.479.479 0 01.216.264c.2.52.394 1.042.592 1.564.035.107.096.213.087.328-.005.095-.055.177-.1.257a2.743 2.743 0 01-.433.53c-.075.08-.162.15-.212.25-.043.09.004.186.046.264.29.531.647 1.028 1.079 1.453.401.398.864.729 1.37.981.11.057.228.1.333.166a.48.48 0 00.25.077.319.319 0 00.207-.098 9.89 9.89 0 00.704-.793c.057-.066.115-.14.2-.17.092-.03.186.011.272.047.57.26 1.116.57 1.668.864a.41.41 0 01.183.155.512.512 0 01.04.278c-.023.31-.116.619-.294.875a1.773 1.773 0 01-.665.565c-.27.136-.562.22-.86.266a1.78 1.78 0 01-.614-.013c-.18-.034-.353-.098-.526-.153-.67-.22-1.33-.481-1.935-.847a7.223 7.223 0 01-1.328-1.042A10.743 10.743 0 015.53 8.872a11.05 11.05 0 01-.608-.979 3.498 3.498 0 01-.315-.738 3.307 3.307 0 01-.15-.787 2.44 2.44 0 01.426-1.442 2.61 2.61 0 01.442-.485.757.757 0 01.401-.204z" fill="#8A8A8A"/></svg>